<svg width="105" height="124" viewBox="0 0 105 124" fill="none" xmlns="http://www.w3.org/2000/svg">
<g clip-path="url(#clip0)">
<rect width="104.421" height="124" rx="6" fill="#202124"/>
<path d="M79.9388 68.3277C77.5813 68.3276 75.6761 70.2103 75.6761 72.54" stroke="#3C4043" stroke-width="2.32497" stroke-miterlimit="10"/>
<path d="M82.7552 71.3359L96.7612 90.5173" stroke="#3C4043" stroke-width="1.54998" stroke-dasharray="3.1 1.55"/>
<path d="M57.5596 91.7209L57.847 91.7221C67.5976 91.7629 75.5238 83.8699 75.5238 74.1191V74.1191" stroke="#4285F4" stroke-width="2.32497" stroke-miterlimit="10"/>
<path d="M57.5597 87.6013L57.7976 87.6023C65.2662 87.6336 71.3373 81.5878 71.3373 74.1191V74.1191" stroke="#1A73E8" stroke-width="2.32497" stroke-miterlimit="10"/>
<path d="M57.4835 83.4818L57.672 83.4826C62.8586 83.5042 67.0746 79.3057 67.0746 74.1191V74.1191" stroke="#1967D2" stroke-width="2.32497" stroke-miterlimit="10"/>
<path d="M57.4835 79.1375L57.6199 79.1381C60.3999 79.1496 62.6597 76.8992 62.6597 74.1191V74.1191" stroke="#185ABC" stroke-width="2.32497" stroke-miterlimit="10"/>
<path d="M57.5596 75.3179L57.5731 75.3179C58.1955 75.3205 58.7014 74.8167 58.7014 74.1943V74.1943" stroke="#174EA6" stroke-width="2.32497" stroke-miterlimit="10"/>
<path d="M56.2599 91.8666L55.3494 90.9688L54.4388 91.8666L55.3494 92.7645L56.2599 91.8666Z" fill="#8AB4F8"/>
<path d="M85.1149 68.252C87.8693 68.252 87.8693 74.7962 90.6335 74.7962C93.388 74.7962 93.388 68.252 96.1522 68.252C98.9066 68.252 98.9066 74.7962 101.671 74.7962C104.435 74.7962 104.425 68.252 107.189 68.252" stroke="#F9AB00" stroke-width="2.32497" stroke-miterlimit="10"/>
<path d="M83.3155 68.2923L82.1914 67.4694L82.1914 69.0666L83.3155 68.2923Z" fill="#FEF7E0"/>
<rect opacity="0.5" x="41.1179" y="87.2832" width="3.19702" height="3.08407" fill="#D93025"/>
<path opacity="0.8" d="M34.8 85.2524C34.8 84.4631 35.4399 83.8232 36.2292 83.8232H40.0693C40.8586 83.8232 41.4985 84.4631 41.4985 85.2524V85.2524C41.4985 86.0418 40.8586 86.6816 40.0693 86.6816H36.2292C35.4399 86.6816 34.8 86.0418 34.8 85.2524V85.2524Z" fill="#D93025"/>
<path d="M30.309 82.6951H38.1493L30.309 74.7969V82.6951Z" fill="#D93025"/>
<ellipse opacity="0.2" cx="45.9134" cy="91.7972" rx="0.913435" ry="0.902655" fill="#D93025"/>
<path d="M3.66718 91.5708H5.70859C7.84867 91.5708 9.58354 89.8359 9.58354 87.6959V87.0497C9.58354 85.1321 11.1381 83.5775 13.0557 83.5775V83.5775C14.9733 83.5775 16.5279 82.023 16.5279 80.1054V79.7888C16.5279 77.6963 18.2242 76 20.3167 76H22.8493" stroke="white" stroke-width="2.32497"/>
<g opacity="0.8">
<line opacity="0.8" x1="3.21039" y1="92.7357" x2="23.991" y2="92.7357" stroke="#188038" stroke-width="0.0774989"/>
<line opacity="0.8" x1="3.05817" y1="74.9085" x2="23.6104" y2="74.9085" stroke="#188038" stroke-width="0.0774989"/>
<line opacity="0.8" x1="14.7045" y1="77.0902" x2="23.6104" y2="77.0902" stroke="#188038" stroke-width="0.0774989"/>
<line opacity="0.8" x1="3.21039" y1="90.4046" x2="23.991" y2="90.4046" stroke="#188038" stroke-width="0.0774989"/>
<line opacity="0.8" x1="15.3522" y1="74.3457" x2="15.3522" y2="85.6289" stroke="#188038" stroke-width="0.0774989"/>
<line opacity="0.8" x1="22.8879" y1="74.3457" x2="22.8879" y2="93.2262" stroke="#188038" stroke-width="0.0774989"/>
<line opacity="0.8" x1="17.7118" y1="74.3457" x2="17.7118" y2="85.6289" stroke="#188038" stroke-width="0.0774989"/>
<line opacity="0.8" x1="10.7089" y1="81.7178" x2="10.7089" y2="93.3018" stroke="#188038" stroke-width="0.0774989"/>
<line opacity="0.8" x1="8.42529" y1="81.6426" x2="8.42528" y2="93.2266" stroke="#188038" stroke-width="0.0774989"/>
<line opacity="0.8" x1="3.62975" y1="74.3457" x2="3.62975" y2="93.2262" stroke="#188038" stroke-width="0.0774989"/>
<line opacity="0.8" x1="6.94025" y1="82.431" x2="19.1193" y2="82.431" stroke="#188038" stroke-width="0.0774989"/>
<line opacity="0.8" x1="6.94025" y1="84.6878" x2="19.1193" y2="84.6878" stroke="#188038" stroke-width="0.0774989"/>
</g>
<line opacity="0.8" x1="57.5223" y1="73.4424" x2="57.5223" y2="93.6017" stroke="#4285F4" stroke-width="0.0774989"/>
<line opacity="0.8" x1="76.7044" y1="73.4424" x2="76.7044" y2="93.6017" stroke="#4285F4" stroke-width="0.0774989"/>
<line opacity="0.8" x1="74.3447" y1="73.4424" x2="74.3447" y2="93.6017" stroke="#4285F4" stroke-width="0.0774989"/>
<line opacity="0.8" x1="77.3507" y1="92.9636" x2="57.1791" y2="92.9636" stroke="#4285F4" stroke-width="0.0774989"/>
<line opacity="0.8" x1="77.3507" y1="90.6315" x2="57.1791" y2="90.6315" stroke="#4285F4" stroke-width="0.0774989"/>
<line opacity="0.8" x1="77.3507" y1="74.1579" x2="56.7985" y2="74.1579" stroke="#4285F4" stroke-width="0.0774989"/>
<ellipse cx="1.00299" cy="91.7211" rx="1.06567" ry="1.0531" fill="#A8DAB5"/>
<line x1="48.0447" y1="91.7623" x2="52.6119" y2="91.7623" stroke="#3C4043" stroke-width="2.32497"/>
<line x1="23.991" y1="75.9654" x2="29.1671" y2="75.9654" stroke="#3C4043" stroke-width="2.32497"/>
<path d="M11.5836 91.5713L39.6716 91.5713" stroke="#3C4043" stroke-width="2.32497" stroke-dasharray="3.1 1.55"/>
<line x1="99.9583" y1="90.7848" x2="108.864" y2="90.7848" stroke="#3C4043" stroke-width="2.32497"/>
<path d="M9.984 26.408H13.008C13.552 26.408 14.048 26.524 14.496 26.756C14.944 26.98 15.296 27.3 15.552 27.716C15.808 28.124 15.936 28.592 15.936 29.12C15.936 29.648 15.808 30.12 15.552 30.536C15.296 30.952 14.944 31.276 14.496 31.508C14.048 31.732 13.552 31.844 13.008 31.844H11.604V35H9.984V26.408ZM13.056 30.308C13.456 30.308 13.768 30.192 13.992 29.96C14.224 29.728 14.34 29.448 14.34 29.12C14.34 28.792 14.224 28.516 13.992 28.292C13.768 28.06 13.456 27.944 13.056 27.944H11.604V30.308H13.056ZM17.6508 26.408H19.2228V35H17.6508V26.408ZM24.1374 35.192C23.5054 35.192 22.9414 35.052 22.4454 34.772C21.9494 34.484 21.5614 34.096 21.2814 33.608C21.0094 33.112 20.8734 32.556 20.8734 31.94C20.8734 31.332 21.0094 30.78 21.2814 30.284C21.5614 29.788 21.9494 29.4 22.4454 29.12C22.9414 28.832 23.5054 28.688 24.1374 28.688C24.7614 28.688 25.3214 28.832 25.8174 29.12C26.3134 29.4 26.6974 29.788 26.9694 30.284C27.2494 30.78 27.3894 31.332 27.3894 31.94C27.3894 32.556 27.2494 33.112 26.9694 33.608C26.6974 34.096 26.3134 34.484 25.8174 34.772C25.3214 35.052 24.7614 35.192 24.1374 35.192ZM24.1374 33.74C24.4414 33.74 24.7214 33.668 24.9774 33.524C25.2334 33.38 25.4374 33.172 25.5894 32.9C25.7414 32.628 25.8174 32.308 25.8174 31.94C25.8174 31.58 25.7414 31.264 25.5894 30.992C25.4374 30.72 25.2334 30.512 24.9774 30.368C24.7214 30.224 24.4414 30.152 24.1374 30.152C23.8334 30.152 23.5534 30.224 23.2974 30.368C23.0414 30.512 22.8334 30.72 22.6734 30.992C22.5214 31.264 22.4454 31.58 22.4454 31.94C22.4454 32.3 22.5214 32.62 22.6734 32.9C22.8334 33.172 23.0414 33.38 23.2974 33.524C23.5534 33.668 23.8334 33.74 24.1374 33.74ZM31.5804 35.096C31.2764 35.096 30.9964 35.052 30.7404 34.964C30.4844 34.868 30.2764 34.74 30.1164 34.58C29.7404 34.22 29.5524 33.708 29.5524 33.044V30.224H28.4844V28.88H29.5524V27.152H31.1244V28.88H32.6244V30.224H31.1244V32.756C31.1244 33.068 31.1924 33.292 31.3284 33.428C31.4404 33.556 31.6324 33.62 31.9044 33.62C32.0564 33.62 32.1804 33.6 32.2764 33.56C32.3804 33.52 32.5124 33.452 32.6724 33.356V34.892C32.3284 35.028 31.9644 35.096 31.5804 35.096ZM37.0375 35.096C36.7335 35.096 36.4535 35.052 36.1975 34.964C35.9415 34.868 35.7335 34.74 35.5735 34.58C35.1975 34.22 35.0095 33.708 35.0095 33.044V30.224H33.9415V28.88H35.0095V27.152H36.5815V28.88H38.0815V30.224H36.5815V32.756C36.5815 33.068 36.6495 33.292 36.7855 33.428C36.8975 33.556 37.0895 33.62 37.3615 33.62C37.5135 33.62 37.6375 33.6 37.7335 33.56C37.8375 33.52 37.9695 33.452 38.1295 33.356V34.892C37.7855 35.028 37.4215 35.096 37.0375 35.096ZM40.8357 28.208C40.5557 28.208 40.3157 28.108 40.1157 27.908C39.9157 27.708 39.8157 27.468 39.8157 27.188C39.8157 26.908 39.9157 26.672 40.1157 26.48C40.3157 26.28 40.5557 26.18 40.8357 26.18C41.1157 26.18 41.3517 26.28 41.5437 26.48C41.7437 26.672 41.8437 26.908 41.8437 27.188C41.8437 27.468 41.7437 27.708 41.5437 27.908C41.3517 28.108 41.1157 28.208 40.8357 28.208ZM40.0437 28.88H41.6157V35H40.0437V28.88ZM43.7641 28.88H45.2401V29.648H45.3361C45.5201 29.352 45.7801 29.12 46.1161 28.952C46.4521 28.776 46.8161 28.688 47.2081 28.688C47.9441 28.688 48.5041 28.912 48.8881 29.36C49.2721 29.808 49.4641 30.42 49.4641 31.196V35H47.8921V31.388C47.8921 30.996 47.7921 30.692 47.5921 30.476C47.3921 30.26 47.1121 30.152 46.7521 30.152C46.3281 30.152 45.9841 30.316 45.7201 30.644C45.4641 30.972 45.3361 31.384 45.3361 31.88V35H43.7641V28.88ZM54.2091 37.784C53.4331 37.784 52.7891 37.608 52.2771 37.256C51.7651 36.912 51.4211 36.496 51.2451 36.008L52.7211 35.408C52.8491 35.712 53.0451 35.952 53.3091 36.128C53.5731 36.304 53.8731 36.392 54.2091 36.392C54.7051 36.392 55.0971 36.24 55.3851 35.936C55.6811 35.632 55.8291 35.2 55.8291 34.64V34.16H55.7331C55.5411 34.432 55.2891 34.64 54.9771 34.784C54.6651 34.928 54.3091 35 53.9091 35C53.4051 35 52.9331 34.872 52.4931 34.616C52.0611 34.352 51.7131 33.984 51.4491 33.512C51.1851 33.032 51.0531 32.476 51.0531 31.844C51.0531 31.212 51.1851 30.66 51.4491 30.188C51.7131 29.708 52.0611 29.34 52.4931 29.084C52.9331 28.82 53.4051 28.688 53.9091 28.688C54.3091 28.688 54.6651 28.76 54.9771 28.904C55.2891 29.048 55.5411 29.256 55.7331 29.528H55.8291V28.88H57.3411V34.58C57.3411 35.236 57.2131 35.804 56.9571 36.284C56.7011 36.764 56.3371 37.132 55.8651 37.388C55.3931 37.652 54.8411 37.784 54.2091 37.784ZM54.2331 33.572C54.6731 33.572 55.0491 33.42 55.3611 33.116C55.6731 32.804 55.8291 32.38 55.8291 31.844C55.8291 31.292 55.6731 30.868 55.3611 30.572C55.0571 30.268 54.6811 30.116 54.2331 30.116C53.7851 30.116 53.4051 30.268 53.0931 30.572C52.7811 30.876 52.6251 31.3 52.6251 31.844C52.6251 32.388 52.7811 32.812 53.0931 33.116C53.4051 33.42 53.7851 33.572 54.2331 33.572ZM64.5979 34.712L62.0179 28.88H63.8059L65.3899 32.684H65.4859L67.0099 28.88H68.7619L64.9819 37.592H63.2899L64.5979 34.712ZM72.821 35.192C72.189 35.192 71.625 35.052 71.129 34.772C70.633 34.484 70.245 34.096 69.965 33.608C69.693 33.112 69.557 32.556 69.557 31.94C69.557 31.332 69.693 30.78 69.965 30.284C70.245 29.788 70.633 29.4 71.129 29.12C71.625 28.832 72.189 28.688 72.821 28.688C73.445 28.688 74.005 28.832 74.501 29.12C74.997 29.4 75.381 29.788 75.653 30.284C75.933 30.78 76.073 31.332 76.073 31.94C76.073 32.556 75.933 33.112 75.653 33.608C75.381 34.096 74.997 34.484 74.501 34.772C74.005 35.052 73.445 35.192 72.821 35.192ZM72.821 33.74C73.125 33.74 73.405 33.668 73.661 33.524C73.917 33.38 74.121 33.172 74.273 32.9C74.425 32.628 74.501 32.308 74.501 31.94C74.501 31.58 74.425 31.264 74.273 30.992C74.121 30.72 73.917 30.512 73.661 30.368C73.405 30.224 73.125 30.152 72.821 30.152C72.517 30.152 72.237 30.224 71.981 30.368C71.725 30.512 71.517 30.72 71.357 30.992C71.205 31.264 71.129 31.58 71.129 31.94C71.129 32.3 71.205 32.62 71.357 32.9C71.517 33.172 71.725 33.38 71.981 33.524C72.237 33.668 72.517 33.74 72.821 33.74ZM79.9252 35.192C79.1892 35.192 78.6292 34.964 78.2452 34.508C77.8612 34.052 77.6692 33.416 77.6692 32.6V28.88H79.2412V32.408C79.2412 32.824 79.3412 33.152 79.5412 33.392C79.7412 33.624 80.0052 33.74 80.3332 33.74C80.7812 33.74 81.1372 33.576 81.4012 33.248C81.6652 32.92 81.7972 32.504 81.7972 32V28.88H83.3692V35H81.8932V34.232H81.7972C81.6132 34.528 81.3532 34.764 81.0172 34.94C80.6892 35.108 80.3252 35.192 79.9252 35.192ZM85.4008 28.88H86.8768V29.696H86.9728C87.1248 29.408 87.3608 29.172 87.6808 28.988C88.0008 28.796 88.3528 28.7 88.7368 28.7C89.0168 28.7 89.2728 28.744 89.5048 28.832V30.404C89.2888 30.324 89.1048 30.268 88.9528 30.236C88.8088 30.196 88.6528 30.176 88.4848 30.176C88.0208 30.176 87.6528 30.344 87.3808 30.68C87.1088 31.016 86.9728 31.44 86.9728 31.952V35H85.4008V28.88ZM12.648 48.192C12.032 48.192 11.48 48.056 10.992 47.784C10.504 47.504 10.12 47.116 9.84 46.62C9.568 46.124 9.432 45.564 9.432 44.94C9.432 44.316 9.568 43.76 9.84 43.272C10.12 42.776 10.504 42.388 10.992 42.108C11.48 41.828 12.032 41.688 12.648 41.688C13.328 41.688 13.912 41.836 14.4 42.132C14.888 42.42 15.24 42.832 15.456 43.368L14.016 43.968C13.76 43.424 13.304 43.152 12.648 43.152C12.168 43.152 11.772 43.316 11.46 43.644C11.156 43.972 11.004 44.404 11.004 44.94C11.004 45.484 11.156 45.92 11.46 46.248C11.772 46.576 12.168 46.74 12.648 46.74C13.312 46.74 13.792 46.452 14.088 45.876L15.516 46.5C15.252 47.036 14.876 47.452 14.388 47.748C13.9 48.044 13.32 48.192 12.648 48.192ZM20.0163 48.192C19.3843 48.192 18.8203 48.052 18.3243 47.772C17.8283 47.484 17.4403 47.096 17.1603 46.608C16.8883 46.112 16.7523 45.556 16.7523 44.94C16.7523 44.332 16.8883 43.78 17.1603 43.284C17.4403 42.788 17.8283 42.4 18.3243 42.12C18.8203 41.832 19.3843 41.688 20.0163 41.688C20.6403 41.688 21.2003 41.832 21.6963 42.12C22.1923 42.4 22.5763 42.788 22.8483 43.284C23.1283 43.78 23.2683 44.332 23.2683 44.94C23.2683 45.556 23.1283 46.112 22.8483 46.608C22.5763 47.096 22.1923 47.484 21.6963 47.772C21.2003 48.052 20.6403 48.192 20.0163 48.192ZM20.0163 46.74C20.3203 46.74 20.6003 46.668 20.8563 46.524C21.1123 46.38 21.3163 46.172 21.4683 45.9C21.6203 45.628 21.6963 45.308 21.6963 44.94C21.6963 44.58 21.6203 44.264 21.4683 43.992C21.3163 43.72 21.1123 43.512 20.8563 43.368C20.6003 43.224 20.3203 43.152 20.0163 43.152C19.7123 43.152 19.4323 43.224 19.1763 43.368C18.9203 43.512 18.7123 43.72 18.5523 43.992C18.4003 44.264 18.3243 44.58 18.3243 44.94C18.3243 45.3 18.4003 45.62 18.5523 45.9C18.7123 46.172 18.9203 46.38 19.1763 46.524C19.4323 46.668 19.7123 46.74 20.0163 46.74ZM27.1205 48.192C26.3845 48.192 25.8245 47.964 25.4405 47.508C25.0565 47.052 24.8645 46.416 24.8645 45.6V41.88H26.4365V45.408C26.4365 45.824 26.5365 46.152 26.7365 46.392C26.9365 46.624 27.2005 46.74 27.5285 46.74C27.9765 46.74 28.3325 46.576 28.5965 46.248C28.8605 45.92 28.9925 45.504 28.9925 45V41.88H30.5645V48H29.0885V47.232H28.9925C28.8085 47.528 28.5485 47.764 28.2125 47.94C27.8845 48.108 27.5205 48.192 27.1205 48.192ZM32.5961 41.88H34.0721V42.696H34.1681C34.3201 42.408 34.5561 42.172 34.8761 41.988C35.1961 41.796 35.5481 41.7 35.9321 41.7C36.2121 41.7 36.4681 41.744 36.7001 41.832V43.404C36.4841 43.324 36.3001 43.268 36.1481 43.236C36.0041 43.196 35.8481 43.176 35.6801 43.176C35.2161 43.176 34.8481 43.344 34.5761 43.68C34.3041 44.016 34.1681 44.44 34.1681 44.952V48H32.5961V41.88ZM40.3108 48.192C39.5668 48.192 38.9628 48.04 38.4988 47.736C38.0428 47.432 37.7228 47.036 37.5388 46.548L38.9428 45.936C39.0708 46.224 39.2508 46.444 39.4828 46.596C39.7228 46.74 39.9988 46.812 40.3108 46.812C40.5988 46.812 40.8388 46.768 41.0308 46.68C41.2228 46.584 41.3188 46.432 41.3188 46.224C41.3188 46.024 41.2308 45.876 41.0548 45.78C40.8788 45.676 40.6148 45.584 40.2628 45.504L39.5428 45.348C39.0468 45.228 38.6348 45.012 38.3068 44.7C37.9788 44.38 37.8148 43.984 37.8148 43.512C37.8148 43.16 37.9188 42.844 38.1268 42.564C38.3428 42.284 38.6308 42.068 38.9908 41.916C39.3588 41.764 39.7628 41.688 40.2028 41.688C41.4668 41.688 42.3108 42.132 42.7348 43.02L41.3908 43.608C41.1508 43.176 40.7668 42.96 40.2388 42.96C39.9668 42.96 39.7508 43.012 39.5908 43.116C39.4308 43.212 39.3508 43.336 39.3508 43.488C39.3508 43.776 39.6228 43.992 40.1668 44.136L41.0668 44.352C41.6748 44.504 42.1308 44.736 42.4348 45.048C42.7468 45.36 42.9028 45.744 42.9028 46.2C42.9028 46.592 42.7868 46.94 42.5548 47.244C42.3308 47.54 42.0188 47.772 41.6188 47.94C41.2268 48.108 40.7908 48.192 40.3108 48.192ZM47.468 48.192C46.86 48.192 46.312 48.052 45.824 47.772C45.336 47.492 44.952 47.108 44.672 46.62C44.4 46.124 44.264 45.568 44.264 44.952C44.264 44.368 44.4 43.828 44.672 43.332C44.944 42.828 45.32 42.428 45.8 42.132C46.28 41.836 46.816 41.688 47.408 41.688C48.04 41.688 48.584 41.824 49.04 42.096C49.496 42.368 49.84 42.74 50.072 43.212C50.312 43.684 50.432 44.208 50.432 44.784C50.432 44.968 50.42 45.144 50.396 45.312H45.8C45.88 45.8 46.072 46.172 46.376 46.428C46.688 46.676 47.06 46.8 47.492 46.8C47.852 46.8 48.16 46.724 48.416 46.572C48.68 46.412 48.888 46.2 49.04 45.936L50.312 46.56C49.688 47.648 48.74 48.192 47.468 48.192ZM48.92 44.196C48.904 44.004 48.832 43.816 48.704 43.632C48.584 43.44 48.412 43.284 48.188 43.164C47.972 43.036 47.716 42.972 47.42 42.972C47.044 42.972 46.72 43.084 46.448 43.308C46.184 43.524 45.992 43.82 45.872 44.196H48.92ZM58.1195 48.096C57.8155 48.096 57.5355 48.052 57.2795 47.964C57.0235 47.868 56.8155 47.74 56.6555 47.58C56.2795 47.22 56.0915 46.708 56.0915 46.044V43.224H55.0235V41.88H56.0915V40.152H57.6635V41.88H59.1635V43.224H57.6635V45.756C57.6635 46.068 57.7315 46.292 57.8675 46.428C57.9795 46.556 58.1715 46.62 58.4435 46.62C58.5955 46.62 58.7195 46.6 58.8155 46.56C58.9195 46.52 59.0515 46.452 59.2115 46.356V47.892C58.8675 48.028 58.5035 48.096 58.1195 48.096ZM63.6882 48.192C63.0562 48.192 62.4922 48.052 61.9962 47.772C61.5002 47.484 61.1122 47.096 60.8322 46.608C60.5602 46.112 60.4242 45.556 60.4242 44.94C60.4242 44.332 60.5602 43.78 60.8322 43.284C61.1122 42.788 61.5002 42.4 61.9962 42.12C62.4922 41.832 63.0562 41.688 63.6882 41.688C64.3122 41.688 64.8722 41.832 65.3682 42.12C65.8642 42.4 66.2482 42.788 66.5202 43.284C66.8002 43.78 66.9402 44.332 66.9402 44.94C66.9402 45.556 66.8002 46.112 66.5202 46.608C66.2482 47.096 65.8642 47.484 65.3682 47.772C64.8722 48.052 64.3122 48.192 63.6882 48.192ZM63.6882 46.74C63.9922 46.74 64.2722 46.668 64.5282 46.524C64.7842 46.38 64.9882 46.172 65.1402 45.9C65.2922 45.628 65.3682 45.308 65.3682 44.94C65.3682 44.58 65.2922 44.264 65.1402 43.992C64.9882 43.72 64.7842 43.512 64.5282 43.368C64.2722 43.224 63.9922 43.152 63.6882 43.152C63.3842 43.152 63.1042 43.224 62.8482 43.368C62.5922 43.512 62.3842 43.72 62.2242 43.992C62.0722 44.264 61.9962 44.58 61.9962 44.94C61.9962 45.3 62.0722 45.62 62.2242 45.9C62.3842 46.172 62.5922 46.38 62.8482 46.524C63.1042 46.668 63.3842 46.74 63.6882 46.74ZM10.656 53.208C10.376 53.208 10.136 53.108 9.936 52.908C9.736 52.708 9.636 52.468 9.636 52.188C9.636 51.908 9.736 51.672 9.936 51.48C10.136 51.28 10.376 51.18 10.656 51.18C10.936 51.18 11.172 51.28 11.364 51.48C11.564 51.672 11.664 51.908 11.664 52.188C11.664 52.468 11.564 52.708 11.364 52.908C11.172 53.108 10.936 53.208 10.656 53.208ZM9.864 53.88H11.436V60H9.864V53.88ZM13.5844 53.88H15.0604V54.648H15.1564C15.3404 54.352 15.6004 54.12 15.9364 53.952C16.2724 53.776 16.6364 53.688 17.0284 53.688C17.7644 53.688 18.3244 53.912 18.7084 54.36C19.0924 54.808 19.2844 55.42 19.2844 56.196V60H17.7124V56.388C17.7124 55.996 17.6124 55.692 17.4124 55.476C17.2124 55.26 16.9324 55.152 16.5724 55.152C16.1484 55.152 15.8044 55.316 15.5404 55.644C15.2844 55.972 15.1564 56.384 15.1564 56.88V60H13.5844V53.88ZM21.268 53.88H22.744V54.648H22.84C23.024 54.352 23.284 54.12 23.62 53.952C23.956 53.776 24.32 53.688 24.712 53.688C25.448 53.688 26.008 53.912 26.392 54.36C26.776 54.808 26.968 55.42 26.968 56.196V60H25.396V56.388C25.396 55.996 25.296 55.692 25.096 55.476C24.896 55.26 24.616 55.152 24.256 55.152C23.832 55.152 23.488 55.316 23.224 55.644C22.968 55.972 22.84 56.384 22.84 56.88V60H21.268V53.88ZM31.8796 60.192C31.2476 60.192 30.6836 60.052 30.1876 59.772C29.6916 59.484 29.3036 59.096 29.0236 58.608C28.7516 58.112 28.6156 57.556 28.6156 56.94C28.6156 56.332 28.7516 55.78 29.0236 55.284C29.3036 54.788 29.6916 54.4 30.1876 54.12C30.6836 53.832 31.2476 53.688 31.8796 53.688C32.5036 53.688 33.0636 53.832 33.5596 54.12C34.0556 54.4 34.4396 54.788 34.7116 55.284C34.9916 55.78 35.1316 56.332 35.1316 56.94C35.1316 57.556 34.9916 58.112 34.7116 58.608C34.4396 59.096 34.0556 59.484 33.5596 59.772C33.0636 60.052 32.5036 60.192 31.8796 60.192ZM31.8796 58.74C32.1836 58.74 32.4636 58.668 32.7196 58.524C32.9756 58.38 33.1796 58.172 33.3316 57.9C33.4836 57.628 33.5596 57.308 33.5596 56.94C33.5596 56.58 33.4836 56.264 33.3316 55.992C33.1796 55.72 32.9756 55.512 32.7196 55.368C32.4636 55.224 32.1836 55.152 31.8796 55.152C31.5756 55.152 31.2956 55.224 31.0396 55.368C30.7836 55.512 30.5756 55.72 30.4156 55.992C30.2636 56.264 30.1876 56.58 30.1876 56.94C30.1876 57.3 30.2636 57.62 30.4156 57.9C30.5756 58.172 30.7836 58.38 31.0396 58.524C31.2956 58.668 31.5756 58.74 31.8796 58.74ZM35.9746 53.88H37.7626L39.3106 57.864H39.4066L40.9786 53.88H42.7426L40.1266 60H38.5666L35.9746 53.88ZM45.8509 60.192C45.2029 60.192 44.6709 60.004 44.2549 59.628C43.8389 59.244 43.6309 58.744 43.6309 58.128C43.6309 57.72 43.7389 57.36 43.9549 57.048C44.1709 56.736 44.4669 56.496 44.8429 56.328C45.2189 56.16 45.6349 56.076 46.0909 56.076C46.7229 56.076 47.2629 56.168 47.7109 56.352V56.088C47.7109 55.752 47.5829 55.48 47.3269 55.272C47.0789 55.064 46.7429 54.96 46.3189 54.96C46.0309 54.96 45.7509 55.028 45.4789 55.164C45.2149 55.292 44.9949 55.464 44.8189 55.68L43.8109 54.888C44.1069 54.504 44.4789 54.208 44.9269 54C45.3749 53.792 45.8629 53.688 46.3909 53.688C47.3269 53.688 48.0389 53.904 48.5269 54.336C49.0149 54.768 49.2589 55.4 49.2589 56.232V60H47.7109V59.376H47.6149C47.4309 59.616 47.1869 59.812 46.8829 59.964C46.5869 60.116 46.2429 60.192 45.8509 60.192ZM46.2229 58.968C46.6789 58.968 47.0389 58.824 47.3029 58.536C47.5749 58.24 47.7109 57.896 47.7109 57.504C47.3029 57.312 46.8749 57.216 46.4269 57.216C45.6109 57.216 45.2029 57.52 45.2029 58.128C45.2029 58.376 45.2909 58.58 45.4669 58.74C45.6429 58.892 45.8949 58.968 46.2229 58.968ZM53.7523 60.096C53.4483 60.096 53.1683 60.052 52.9123 59.964C52.6563 59.868 52.4483 59.74 52.2883 59.58C51.9123 59.22 51.7243 58.708 51.7243 58.044V55.224H50.6563V53.88H51.7243V52.152H53.2963V53.88H54.7963V55.224H53.2963V57.756C53.2963 58.068 53.3643 58.292 53.5003 58.428C53.6123 58.556 53.8043 58.62 54.0763 58.62C54.2283 58.62 54.3523 58.6 54.4483 58.56C54.5523 58.52 54.6843 58.452 54.8443 58.356V59.892C54.5003 60.028 54.1363 60.096 53.7523 60.096ZM57.5505 53.208C57.2705 53.208 57.0305 53.108 56.8305 52.908C56.6305 52.708 56.5305 52.468 56.5305 52.188C56.5305 51.908 56.6305 51.672 56.8305 51.48C57.0305 51.28 57.2705 51.18 57.5505 51.18C57.8305 51.18 58.0665 51.28 58.2585 51.48C58.4585 51.672 58.5585 51.908 58.5585 52.188C58.5585 52.468 58.4585 52.708 58.2585 52.908C58.0665 53.108 57.8305 53.208 57.5505 53.208ZM56.7585 53.88H58.3305V60H56.7585V53.88ZM63.3483 60.192C62.7163 60.192 62.1523 60.052 61.6563 59.772C61.1603 59.484 60.7723 59.096 60.4923 58.608C60.2203 58.112 60.0843 57.556 60.0843 56.94C60.0843 56.332 60.2203 55.78 60.4923 55.284C60.7723 54.788 61.1603 54.4 61.6563 54.12C62.1523 53.832 62.7163 53.688 63.3483 53.688C63.9723 53.688 64.5323 53.832 65.0283 54.12C65.5243 54.4 65.9083 54.788 66.1803 55.284C66.4603 55.78 66.6003 56.332 66.6003 56.94C66.6003 57.556 66.4603 58.112 66.1803 58.608C65.9083 59.096 65.5243 59.484 65.0283 59.772C64.5323 60.052 63.9723 60.192 63.3483 60.192ZM63.3483 58.74C63.6523 58.74 63.9323 58.668 64.1883 58.524C64.4443 58.38 64.6483 58.172 64.8003 57.9C64.9523 57.628 65.0283 57.308 65.0283 56.94C65.0283 56.58 64.9523 56.264 64.8003 55.992C64.6483 55.72 64.4443 55.512 64.1883 55.368C63.9323 55.224 63.6523 55.152 63.3483 55.152C63.0443 55.152 62.7643 55.224 62.5083 55.368C62.2523 55.512 62.0443 55.72 61.8843 55.992C61.7323 56.264 61.6563 56.58 61.6563 56.94C61.6563 57.3 61.7323 57.62 61.8843 57.9C62.0443 58.172 62.2523 58.38 62.5083 58.524C62.7643 58.668 63.0443 58.74 63.3483 58.74ZM68.186 53.88H69.662V54.648H69.758C69.942 54.352 70.202 54.12 70.538 53.952C70.874 53.776 71.238 53.688 71.63 53.688C72.366 53.688 72.926 53.912 73.31 54.36C73.694 54.808 73.886 55.42 73.886 56.196V60H72.314V56.388C72.314 55.996 72.214 55.692 72.014 55.476C71.814 55.26 71.534 55.152 71.174 55.152C70.75 55.152 70.406 55.316 70.142 55.644C69.886 55.972 69.758 56.384 69.758 56.88V60H68.186V53.88Z" fill="white"/>
<path d="M35.0363 17.7676H34.4749V13.4492H35.0363V17.7676Z" fill="white"/>
<path d="M35.9468 15.1641C36.2363 14.8652 36.6027 14.7129 37.046 14.7129C37.4892 14.7129 37.8556 14.8652 38.1451 15.1641C38.4347 15.4629 38.5765 15.8379 38.5765 16.2891C38.5765 16.7402 38.4347 17.1152 38.1451 17.4141C37.8556 17.7129 37.4892 17.8652 37.046 17.8652C36.6027 17.8652 36.2363 17.7129 35.9468 17.4141C35.6572 17.1152 35.5154 16.7402 35.5154 16.2891C35.5154 15.8379 35.6631 15.4629 35.9468 15.1641ZM36.3664 17.0625C36.5614 17.2559 36.7859 17.3555 37.0519 17.3555C37.3178 17.3555 37.5424 17.2559 37.7374 17.0625C37.9324 16.8691 38.0269 16.6113 38.0269 16.2891C38.0269 15.9668 37.9324 15.709 37.7374 15.5156C37.5424 15.3223 37.3178 15.2227 37.0519 15.2227C36.7859 15.2227 36.5614 15.3223 36.3664 15.5156C36.1713 15.709 36.0768 15.9668 36.0768 16.2891C36.0768 16.6055 36.1713 16.8691 36.3664 17.0625Z" fill="white"/>
<path d="M41.673 17.7656H41.1352V17.3555H41.1116C41.0289 17.4961 40.8989 17.6133 40.7216 17.7129C40.5502 17.8125 40.3611 17.8594 40.1661 17.8594C39.7938 17.8594 39.5101 17.748 39.321 17.5195C39.126 17.2969 39.0314 16.9922 39.0314 16.6172V14.8066H39.5928V16.5234C39.5928 17.0742 39.8351 17.3496 40.3256 17.3496C40.5561 17.3496 40.7452 17.2559 40.8929 17.0742C41.0407 16.8867 41.1116 16.6758 41.1116 16.4355V14.8066H41.673V17.7656V17.7656Z" fill="white"/>
<path d="M43.5698 17.8613C43.1857 17.8613 42.8548 17.709 42.5711 17.4102C42.2934 17.1113 42.1516 16.7363 42.1516 16.291C42.1516 15.8457 42.2934 15.4707 42.5711 15.1719C42.8489 14.873 43.1857 14.7207 43.5698 14.7207C43.7944 14.7207 44.0012 14.7676 44.1785 14.8672C44.3617 14.9609 44.4917 15.084 44.5804 15.2305H44.604L44.5804 14.8203V13.4492H45.1418V17.7617H44.604V17.3516H44.5804C44.4917 17.498 44.3558 17.6152 44.1785 17.7148C44.0012 17.8145 43.8003 17.8613 43.5698 17.8613ZM43.6644 17.3574C43.9303 17.3574 44.149 17.2637 44.3381 17.0703C44.5213 16.877 44.6158 16.6191 44.6158 16.291C44.6158 15.9629 44.5213 15.7051 44.3381 15.5117C44.1549 15.3184 43.9303 15.2246 43.6644 15.2246C43.4044 15.2246 43.1798 15.3242 42.9966 15.5176C42.8075 15.7109 42.7189 15.9687 42.7189 16.291C42.7189 16.6133 42.8134 16.8711 42.9966 17.0645C43.1798 17.2578 43.4044 17.3574 43.6644 17.3574Z" fill="white"/>
<path d="M32.2532 17.8604C31.6149 17.8604 31.0772 17.6436 30.6399 17.2158C30.2085 16.7881 29.9898 16.249 29.9898 15.6045C29.9898 14.96 30.2085 14.4268 30.6399 13.9932C31.0713 13.5654 31.609 13.3486 32.2532 13.3486C32.9091 13.3486 33.441 13.583 33.8547 14.0518L33.4646 14.4268C33.1691 14.0635 32.7673 13.876 32.2532 13.876C31.7804 13.876 31.3786 14.0342 31.0535 14.3506C30.7285 14.667 30.563 15.083 30.563 15.5986C30.563 16.1143 30.7285 16.5303 31.0535 16.8467C31.3786 17.1631 31.7804 17.3213 32.2532 17.3213C32.7732 17.3213 33.2223 17.1104 33.5887 16.6943L33.9788 17.0811C33.7778 17.3154 33.5296 17.5088 33.2282 17.6436C32.9328 17.79 32.6077 17.8604 32.2532 17.8604Z" fill="white"/>
<path d="M11.3865 17.8613C10.6951 17.8613 10.1042 17.6211 9.60775 17.1348C9.11135 16.6484 8.85724 16.0684 8.85724 15.3887C8.85724 14.709 9.10544 14.1289 9.60775 13.6426C10.1042 13.1621 10.6951 12.9219 11.3865 12.9219C12.0484 12.9219 12.6157 13.1504 13.0944 13.6016L12.6157 14.0762C12.273 13.7539 11.8593 13.5957 11.3865 13.5957C10.8901 13.5957 10.4646 13.7715 10.1219 14.1172C9.77322 14.4687 9.60184 14.8906 9.60184 15.3887C9.60184 15.8867 9.77322 16.3086 10.1219 16.6602C10.4705 17.0117 10.8901 17.1816 11.3865 17.1816C11.8948 17.1816 12.3143 17.0176 12.6453 16.6895C12.8462 16.4902 12.9703 16.209 13.0176 15.8398H11.3865V15.166H13.6794C13.7031 15.2891 13.7149 15.4297 13.7149 15.5879C13.7149 16.25 13.5199 16.7773 13.1239 17.1641C12.6748 17.6328 12.0957 17.8613 11.3865 17.8613Z" fill="white"/>
<path d="M16.7106 15.1367C16.3974 14.832 16.0192 14.6797 15.57 14.6797C15.1209 14.6797 14.7368 14.832 14.4295 15.1367C14.1163 15.4414 13.9626 15.8164 13.9626 16.2734C13.9626 16.7305 14.1163 17.1055 14.4295 17.4102C14.7427 17.7148 15.1209 17.8672 15.57 17.8672C16.0192 17.8672 16.4033 17.7148 16.7106 17.4102C17.0238 17.1055 17.1774 16.7305 17.1774 16.2734C17.1774 15.8164 17.0238 15.4355 16.7106 15.1367ZM16.2024 16.959C16.0251 17.1406 15.8123 17.2344 15.5641 17.2344C15.3159 17.2344 15.1032 17.1406 14.9259 16.959C14.7486 16.7773 14.66 16.5488 14.66 16.2676C14.66 15.9863 14.7486 15.7578 14.9259 15.5762C15.1032 15.3945 15.3159 15.3066 15.57 15.3066C15.8242 15.3066 16.0369 15.3945 16.2142 15.5762C16.3915 15.7578 16.4801 15.9863 16.4801 16.2676C16.4742 16.5488 16.3856 16.7773 16.2024 16.959Z" fill="white"/>
<path d="M20.2213 15.1367C19.9081 14.832 19.5298 14.6797 19.0807 14.6797C18.6316 14.6797 18.2475 14.832 17.9402 15.1367C17.627 15.4414 17.4733 15.8164 17.4733 16.2734C17.4733 16.7305 17.627 17.1055 17.9402 17.4102C18.2534 17.7148 18.6316 17.8672 19.0807 17.8672C19.5298 17.8672 19.914 17.7148 20.2213 17.4102C20.5345 17.1055 20.6881 16.7305 20.6881 16.2734C20.694 15.8164 20.5345 15.4355 20.2213 15.1367ZM19.719 16.959C19.5417 17.1406 19.3289 17.2344 19.0807 17.2344C18.8325 17.2344 18.6198 17.1406 18.4425 16.959C18.2652 16.7773 18.1766 16.5488 18.1766 16.2676C18.1766 15.9863 18.2652 15.7578 18.4425 15.5762C18.6198 15.3945 18.8325 15.3066 19.0866 15.3066C19.3407 15.3066 19.5535 15.3945 19.7308 15.5762C19.9081 15.7578 19.9967 15.9863 19.9967 16.2676C19.9849 16.5488 19.8962 16.7773 19.719 16.959Z" fill="white"/>
<path d="M23.3885 14.7734V15.0312H23.3648C23.2821 14.9316 23.1639 14.8437 23.0162 14.7793C22.8684 14.709 22.703 14.6797 22.5198 14.6797C22.112 14.6797 21.7515 14.8379 21.4442 15.1484C21.1369 15.459 20.9833 15.834 20.9833 16.2793C20.9833 16.7188 21.1369 17.0937 21.4442 17.3984C21.7515 17.709 22.112 17.8613 22.5198 17.8613C22.8862 17.8613 23.1639 17.7383 23.3648 17.498H23.3885V17.7266C23.3885 18.0254 23.3116 18.2598 23.158 18.418C23.0043 18.5762 22.7975 18.6582 22.5316 18.6582C22.3307 18.6582 22.1652 18.5996 22.0293 18.4883C21.8933 18.377 21.7929 18.2422 21.7279 18.0898L21.1133 18.3418C21.2197 18.5938 21.391 18.8105 21.6333 18.998C21.8756 19.1855 22.177 19.2793 22.5316 19.2793C22.9748 19.2793 23.3412 19.1445 23.6308 18.8691C23.9144 18.5938 24.0622 18.1777 24.0622 17.627V14.7676H23.3885V14.7734ZM23.1935 16.959C23.028 17.1406 22.8271 17.2344 22.5848 17.2344C22.3366 17.2344 22.1297 17.1406 21.9524 16.959C21.7811 16.7773 21.6924 16.5488 21.6924 16.2734C21.6924 15.998 21.7811 15.7637 21.9524 15.582C22.1238 15.3945 22.3366 15.3066 22.5848 15.3066C22.8271 15.3066 23.0339 15.4004 23.1935 15.582C23.3589 15.7695 23.4417 15.998 23.4417 16.2734C23.4357 16.5488 23.3589 16.7773 23.1935 16.959Z" fill="white"/>
<path d="M25.2505 13.085H24.5472V17.7607H25.2505V13.085Z" fill="white"/>
<path d="M27.1824 17.2354C26.8278 17.2354 26.5678 17.0771 26.4024 16.7549L28.5475 15.876L28.4766 15.6943C28.4353 15.5889 28.3821 15.4834 28.3171 15.3838C28.2521 15.2783 28.1634 15.1729 28.057 15.0615C27.9448 14.9502 27.8088 14.8623 27.6434 14.792C27.4779 14.7217 27.2947 14.6865 27.0997 14.6865C26.6801 14.6865 26.3196 14.833 26.0241 15.1318C25.7287 15.4307 25.5809 15.8115 25.5809 16.2744C25.5809 16.7256 25.7346 17.1006 26.036 17.4053C26.3374 17.71 26.7215 17.8623 27.1706 17.8623C27.4956 17.8623 27.7675 17.792 27.992 17.6455C28.2166 17.499 28.388 17.3408 28.5062 17.1592L27.9566 16.7959C27.7675 17.0889 27.5074 17.2354 27.1824 17.2354ZM26.5501 15.5479C26.7333 15.3779 26.9224 15.2959 27.1292 15.2959C27.2652 15.2959 27.3893 15.3252 27.5015 15.3896C27.6138 15.4541 27.6847 15.5361 27.7261 15.6357L26.2901 16.2275C26.2783 15.9404 26.3669 15.7178 26.5501 15.5479Z" fill="white"/>
</g>
<defs>
<clipPath id="clip0">
<rect width="104.421" height="124" rx="6" fill="white"/>
</clipPath>
</defs>
</svg>
