<svg width="204" height="66" viewBox="0 0 204 66" fill="none" xmlns="http://www.w3.org/2000/svg">
<path d="M137.642 42.9773H135.152V23.9766H137.642V42.9773Z" fill="white"/>
<path d="M141.678 31.5293C142.963 30.2145 144.587 29.5442 146.553 29.5442C148.519 29.5442 150.143 30.2145 151.428 31.5293C152.712 32.8442 153.341 34.4942 153.341 36.4793C153.341 38.4645 152.712 40.1145 151.428 41.4293C150.143 42.7442 148.519 43.4145 146.553 43.4145C144.587 43.4145 142.963 42.7442 141.678 41.4293C140.394 40.1145 139.765 38.4645 139.765 36.4793C139.765 34.4942 140.42 32.8442 141.678 31.5293ZM143.539 39.8824C144.404 40.7332 145.4 41.1715 146.579 41.1715C147.759 41.1715 148.754 40.7332 149.619 39.8824C150.484 39.0317 150.903 37.8973 150.903 36.4793C150.903 35.0613 150.484 33.927 149.619 33.0762C148.754 32.2254 147.759 31.7871 146.579 31.7871C145.4 31.7871 144.404 32.2254 143.539 33.0762C142.674 33.927 142.255 35.0613 142.255 36.4793C142.255 37.8715 142.674 39.0317 143.539 39.8824Z" fill="white"/>
<path d="M167.074 42.9779H164.689V41.1732H164.584C164.217 41.792 163.64 42.3076 162.854 42.7459C162.094 43.1842 161.255 43.3904 160.391 43.3904C158.74 43.3904 157.482 42.9006 156.643 41.8951C155.778 40.9154 155.359 39.5748 155.359 37.9248V29.9584H157.848V37.5123C157.848 39.9357 158.923 41.1475 161.098 41.1475C162.12 41.1475 162.959 40.735 163.614 39.9357C164.269 39.1107 164.584 38.1826 164.584 37.1256V29.9584H167.074V42.9779Z" fill="white"/>
<path d="M175.486 43.3898C173.783 43.3898 172.315 42.7195 171.057 41.4047C169.825 40.0898 169.196 38.4398 169.196 36.4805C169.196 34.5211 169.825 32.8711 171.057 31.5562C172.289 30.2414 173.783 29.5711 175.486 29.5711C176.482 29.5711 177.399 29.7773 178.186 30.2156C178.998 30.6281 179.575 31.1695 179.968 31.8141H180.073L179.968 30.0094V23.9766H182.458V42.9516H180.073V41.1469H179.968C179.575 41.7914 178.972 42.307 178.186 42.7453C177.399 43.1836 176.508 43.3898 175.486 43.3898ZM175.906 41.1727C177.085 41.1727 178.055 40.7602 178.893 39.9094C179.706 39.0586 180.125 37.9242 180.125 36.4805C180.125 35.0367 179.706 33.9023 178.893 33.0516C178.081 32.2008 177.085 31.7883 175.906 31.7883C174.752 31.7883 173.757 32.2266 172.944 33.0773C172.106 33.9281 171.712 35.0625 171.712 36.4805C171.712 37.8984 172.132 39.0328 172.944 39.8836C173.757 40.7344 174.752 41.1727 175.906 41.1727Z" fill="white"/>
<path d="M125.299 43.3893C122.468 43.3893 120.083 42.4354 118.144 40.5533C116.231 38.6713 115.261 36.2994 115.261 33.4635C115.261 30.6275 116.231 28.2815 118.144 26.3736C120.057 24.4916 122.442 23.5377 125.299 23.5377C128.208 23.5377 130.566 24.569 132.401 26.6315L130.671 28.2815C129.361 26.683 127.579 25.858 125.299 25.858C123.202 25.858 121.42 26.5541 119.978 27.9463C118.537 29.3385 117.803 31.169 117.803 33.4377C117.803 35.7065 118.537 37.5369 119.978 38.9291C121.42 40.3213 123.202 41.0174 125.299 41.0174C127.605 41.0174 129.597 40.0893 131.222 38.2588L132.951 39.9604C132.06 40.9916 130.959 41.8424 129.623 42.4354C128.313 43.0799 126.871 43.3893 125.299 43.3893Z" fill="white"/>
<path d="M32.7593 43.3898C29.693 43.3898 27.0723 42.3328 24.8708 40.193C22.6694 38.0531 21.5425 35.5008 21.5425 32.5102C21.5425 29.5195 22.6432 26.9672 24.8708 24.8273C27.0723 22.7133 29.693 21.6562 32.7593 21.6562C35.6946 21.6562 38.2105 22.6617 40.3333 24.6469L38.2105 26.7352C36.6905 25.3172 34.8559 24.6211 32.7593 24.6211C30.5579 24.6211 28.671 25.3945 27.1509 26.9156C25.6047 28.4625 24.8446 30.3187 24.8446 32.5102C24.8446 34.7016 25.6047 36.5578 27.1509 38.1047C28.6972 39.6516 30.5579 40.3992 32.7593 40.3992C35.0132 40.3992 36.8739 39.6773 38.3416 38.2336C39.2326 37.357 39.783 36.1195 39.9926 34.4953H32.7593V31.5305H42.9279C43.0327 32.0719 43.0851 32.6906 43.0851 33.3867C43.0851 36.3 42.2203 38.6203 40.4644 40.3219C38.4726 42.3844 35.9043 43.3898 32.7593 43.3898Z" fill="white"/>
<path d="M56.3721 31.4016C54.9831 30.0609 53.3058 29.3906 51.314 29.3906C49.3222 29.3906 47.6187 30.0609 46.2559 31.4016C44.8669 32.7422 44.1855 34.3922 44.1855 36.4031C44.1855 38.4141 44.8669 40.0641 46.2559 41.4047C47.645 42.7453 49.3222 43.4156 51.314 43.4156C53.3058 43.4156 55.0093 42.7453 56.3721 41.4047C57.7611 40.0641 58.4425 38.4141 58.4425 36.4031C58.4425 34.3922 57.7611 32.7164 56.3721 31.4016ZM54.1182 39.4195C53.332 40.2187 52.3885 40.6313 51.2878 40.6313C50.1871 40.6313 49.2436 40.2187 48.4574 39.4195C47.6712 38.6203 47.278 37.6148 47.278 36.3773C47.278 35.1398 47.6712 34.1344 48.4574 33.3352C49.2436 32.5359 50.1871 32.1492 51.314 32.1492C52.4409 32.1492 53.3844 32.5359 54.1706 33.3352C54.9569 34.1344 55.35 35.1398 55.35 36.3773C55.3238 37.6148 54.9307 38.6203 54.1182 39.4195Z" fill="white"/>
<path d="M71.9398 31.4016C70.5508 30.0609 68.8735 29.3906 66.8818 29.3906C64.89 29.3906 63.1865 30.0609 61.8237 31.4016C60.4347 32.7422 59.7533 34.3922 59.7533 36.4031C59.7533 38.4141 60.4347 40.0641 61.8237 41.4047C63.2127 42.7453 64.89 43.4156 66.8818 43.4156C68.8735 43.4156 70.577 42.7453 71.9398 41.4047C73.3288 40.0641 74.0102 38.4141 74.0102 36.4031C74.0364 34.3922 73.3288 32.7164 71.9398 31.4016ZM69.7122 39.4195C68.926 40.2187 67.9825 40.6313 66.8818 40.6313C65.781 40.6313 64.8376 40.2187 64.0513 39.4195C63.2651 38.6203 62.872 37.6148 62.872 36.3773C62.872 35.1398 63.2651 34.1344 64.0513 33.3352C64.8376 32.5359 65.781 32.1492 66.908 32.1492C68.0349 32.1492 68.9784 32.5359 69.7646 33.3352C70.5508 34.1344 70.9439 35.1398 70.9439 36.3773C70.8915 37.6148 70.4984 38.6203 69.7122 39.4195Z" fill="white"/>
<path d="M85.9868 29.8031V30.9375H85.882C85.5151 30.4992 84.9909 30.1125 84.3357 29.8289C83.6805 29.5195 82.9467 29.3906 82.1343 29.3906C80.326 29.3906 78.7273 30.0867 77.3645 31.4531C76.0017 32.8195 75.3203 34.4695 75.3203 36.4289C75.3203 38.3625 76.0017 40.0125 77.3645 41.3531C78.7273 42.7195 80.326 43.3898 82.1343 43.3898C83.7592 43.3898 84.9909 42.8484 85.882 41.7914H85.9868V42.7969C85.9868 44.1117 85.6461 45.143 84.9647 45.8391C84.2833 46.5352 83.3661 46.8961 82.1867 46.8961C81.2957 46.8961 80.5618 46.6383 79.9591 46.1484C79.3563 45.6586 78.9108 45.0656 78.6225 44.3953L75.8969 45.5039C76.3686 46.6125 77.1286 47.5664 78.2031 48.3914C79.2777 49.2164 80.6143 49.6289 82.1867 49.6289C84.1523 49.6289 85.7772 49.0359 87.0613 47.8242C88.3193 46.6125 88.9745 44.782 88.9745 42.3586V29.7773H85.9868V29.8031ZM85.122 39.4195C84.3881 40.2187 83.4971 40.6313 82.4226 40.6313C81.3219 40.6313 80.4046 40.2187 79.6184 39.4195C78.8583 38.6203 78.4652 37.6148 78.4652 36.4031C78.4652 35.1914 78.8583 34.1602 79.6184 33.3609C80.3784 32.5359 81.3219 32.1492 82.4226 32.1492C83.4971 32.1492 84.4144 32.5617 85.122 33.3609C85.8558 34.1859 86.2227 35.1914 86.2227 36.4031C86.1965 37.6148 85.8558 38.6203 85.122 39.4195Z" fill="white"/>
<path d="M94.2424 22.3775H91.1237V42.951H94.2424V22.3775Z" fill="white"/>
<path d="M102.812 40.6301C101.24 40.6301 100.087 39.934 99.3529 38.516L108.866 34.6488L108.552 33.8496C108.368 33.3856 108.132 32.9215 107.844 32.4832C107.556 32.0192 107.163 31.5551 106.691 31.0652C106.193 30.5754 105.59 30.1887 104.856 29.8793C104.123 29.5699 103.31 29.4152 102.445 29.4152C100.585 29.4152 98.986 30.0598 97.6756 31.3746C96.3652 32.6895 95.71 34.3652 95.71 36.402C95.71 38.3871 96.3914 40.0371 97.728 41.3777C99.0646 42.7184 100.768 43.3887 102.76 43.3887C104.201 43.3887 105.407 43.0793 106.403 42.4348C107.399 41.7902 108.159 41.0941 108.683 40.2949L106.245 38.6965C105.407 39.9856 104.254 40.6301 102.812 40.6301ZM100.008 33.2051C100.82 32.4574 101.659 32.0965 102.576 32.0965C103.179 32.0965 103.73 32.2254 104.227 32.509C104.725 32.7926 105.04 33.1535 105.223 33.5918L98.8549 36.1957C98.8025 34.9324 99.1956 33.9527 100.008 33.2051Z" fill="white"/>
</svg>
